<?xml version="1.0" encoding="UTF-8"?>
<svg width="400" height="400" viewBox="-60 -60 120 120" xmlns="http://www.w3.org/2000/svg">
    <!-- Main path -->
    <path id="matpathpcp" fill="none" stroke="#666" stroke-width="3" d="M-18.186533479473212,-10.499999999999998 C-43.18653347947322,32.80127018922193,-40.00000000000001,41.99999999999999 -7.715274834628325e-15,42 39.99999999999999,42.00099999999999,43.1865334794732,32.80127018922194 18.186533479473212,-10.499999999999998 -6.813466520526795,-53.80127018922193,-16.373066958946406,-55.64101615137753 -36.373066958946424,-20.999999999999996 -56.373066958946424,13.641016151377546,-50,21 1.2858791391047208e-15,21 50,20.999999999999993,56.37306695894642,13.641016151377553 36.373066958946424,-20.999999999999996 16.37306695894642,-55.64101615137754,6.813466520526777,-53.80127018922194 -18.186533479473212,-10.500000000000002" stroke-dasharray="123,20,146,20,146,20,1000000"></path>
    
    <!-- Lines to center -->
    <line x1="-18.186533479473212" y1="-10.499999999999998" x2="0" y2="0" stroke="#5ba1d5"></line>
    <line x1="-7.715274834628325e-15" y1="42" x2="0" y2="0" stroke="#5ba1d5"></line>
    <line x1="18.186533479473212" y1="-10.499999999999998" x2="0" y2="0" stroke="#5ba1d5"></line>
    <line x1="-36.373066958946424" y1="-20.999999999999996" x2="0" y2="0" stroke="#5ba1d5"></line>
    <line x1="1.2858791391047208e-15" y1="21" x2="0" y2="0" stroke="#5ba1d5"></line>
    <line x1="36.373066958946424" y1="-20.999999999999996" x2="0" y2="0" stroke="#5ba1d5"></line>
    <line x1="-18.186533479473212" y1="-10.500000000000002" x2="0" y2="0" stroke="#5ba1d5"></line>
    
    <!-- Main points (blue) -->
    <circle cx="-18.186533479473212" cy="-10.499999999999998" r="3" fill="#5ba1d5"></circle>
    <circle cx="-7.715274834628325e-15" cy="42" r="3" fill="#5ba1d5"></circle>
    <circle cx="18.186533479473212" cy="-10.499999999999998" r="3" fill="#5ba1d5"></circle>
    <circle cx="-36.373066958946424" cy="-20.999999999999996" r="3" fill="#5ba1d5"></circle>
    <circle cx="1.2858791391047208e-15" cy="21" r="3" fill="#5ba1d5"></circle>
    <circle cx="36.373066958946424" cy="-20.999999999999996" r="3" fill="#5ba1d5"></circle>
    <circle cx="-18.186533479473212" cy="-10.500000000000002" r="3" fill="#5ba1d5"></circle>
    
    <!-- Control points (gold) -->
    <circle cx="6.813466520526809" cy="-53.80127018922192" r="2" fill="#d9a400"></circle>
    <circle cx="-40.00000000000001" cy="41.99999999999999" r="2" fill="#d9a400"></circle>
    <circle cx="43.1865334794732" cy="32.80127018922194" r="2" fill="#d9a400"></circle>
    <circle cx="-16.373066958946406" cy="-55.64101615137753" r="2" fill="#d9a400"></circle>
    <circle cx="-50" cy="21" r="2" fill="#d9a400"></circle>
    <circle cx="56.37306695894642" cy="13.641016151377553" r="2" fill="#d9a400"></circle>
    <circle cx="6.813466520526777" cy="-53.80127018922194" r="2" fill="#d9a400"></circle>
    <circle cx="-43.18653347947322" cy="32.80127018922193" r="2" fill="#d9a400"></circle>
    <circle cx="39.99999999999999" cy="42.00000000000001" r="2" fill="#d9a400"></circle>
    <circle cx="-6.813466520526795" cy="-53.80127018922193" r="2" fill="#d9a400"></circle>
    <circle cx="-56.373066958946424" cy="13.641016151377546" r="2" fill="#d9a400"></circle>
    <circle cx="50" cy="20.999999999999993" r="2" fill="#d9a400"></circle>
    <circle cx="16.37306695894642" cy="-55.64101615137754" r="2" fill="#d9a400"></circle>
    <circle cx="-43.18653347947322" cy="32.80127018922193" r="2" fill="#d9a400"></circle>
    
    <!-- Control point lines -->
    <line x1="-18.186533479473212" y1="-10.499999999999998" x2="6.813466520526809" y2="-53.80127018922192" stroke="#aaa" stroke-dasharray="5,5"></line>
    <line x1="-7.715274834628325e-15" y1="42" x2="-40.00000000000001" y2="41.99999999999999" stroke="#eee" stroke-dasharray="5,5"></line>
    <line x1="18.186533479473212" y1="-10.499999999999998" x2="43.1865334794732" y2="32.80127018922194" stroke="#eee" stroke-dasharray="5,5"></line>
    <line x1="-36.373066958946424" y1="-20.999999999999996" x2="-16.373066958946406" y2="-55.64101615137753" stroke="#eee" stroke-dasharray="5,5"></line>
    <line x1="1.2858791391047208e-15" y1="21" x2="-50" y2="21" stroke="#eee" stroke-dasharray="5,5"></line>
    <line x1="36.373066958946424" y1="-20.999999999999996" x2="56.37306695894642" y2="13.641016151377553" stroke="#eee" stroke-dasharray="5,5"></line>
    <line x1="-18.186533479473212" y1="-10.500000000000002" x2="6.813466520526777" y2="-53.80127018922194" stroke="#eee" stroke-dasharray="5,5"></line>
    <line x1="-7.715274834628325e-15" y1="42" x2="39.99999999999999" y2="42.00000000000001" stroke="#eee" stroke-dasharray="5,5"></line>
    <line x1="18.186533479473212" y1="-10.499999999999998" x2="-6.813466520526795" y2="-53.80127018922193" stroke="#eee" stroke-dasharray="5,5"></line>
    <line x1="-36.373066958946424" y1="-20.999999999999996" x2="-56.373066958946424" y2="13.641016151377546" stroke="#eee" stroke-dasharray="5,5"></line>
    <line x1="1.2858791391047208e-15" y1="21" x2="50" y2="20.999999999999993" stroke="#eee" stroke-dasharray="5,5"></line>
    <line x1="36.373066958946424" y1="-20.999999999999996" x2="16.37306695894642" y2="-55.64101615137754" stroke="#eee" stroke-dasharray="5,5"></line>
    <line x1="-18.186533479473212" y1="-10.500000000000002" x2="-43.18653347947322" y2="32.80127018922193" stroke="#eee" stroke-dasharray="5,5"></line>
</svg>
